  0
SECTION
  2
BLOCKS
  0
ENDSEC
  0
SECTION
  2
ENTITIES
  0
LINE
  8
0
 10
-5
 20
6.12323e-16
 11
-4.99013
 21
-0.313953
  0
LINE
  8
0
 10
-4.99013
 20
-0.313953
 11
-4.96057
 21
-0.626666
  0
LINE
  8
0
 10
-4.96057
 20
-0.626666
 11
-4.91144
 21
-0.936907
  0
LINE
  8
0
 10
-4.91144
 20
-0.936907
 11
-4.84292
 21
-1.24345
  0
LINE
  8
0
 10
-4.84292
 20
-1.24345
 11
-4.75528
 21
-1.54508
  0
LINE
  8
0
 10
-4.75528
 20
-1.54508
 11
-4.64888
 21
-1.84062
  0
LINE
  8
0
 10
-4.64888
 20
-1.84062
 11
-4.52414
 21
-2.1289
  0
LINE
  8
0
 10
-4.52414
 20
-2.1289
 11
-4.38153
 21
-2.40877
  0
LINE
  8
0
 10
-4.38153
 20
-2.40877
 11
-4.22164
 21
-2.67913
  0
LINE
  8
0
 10
-4.22164
 20
-2.67913
 11
-4.04508
 21
-2.93893
  0
LINE
  8
0
 10
-4.04508
 20
-2.93893
 11
-3.85257
 21
-3.18712
  0
LINE
  8
0
 10
-3.85257
 20
-3.18712
 11
-3.64484
 21
-3.42274
  0
LINE
  8
0
 10
-3.64484
 20
-3.42274
 11
-3.42274
 21
-3.64484
  0
LINE
  8
0
 10
-3.42274
 20
-3.64484
 11
-3.18712
 21
-3.85257
  0
LINE
  8
0
 10
-3.18712
 20
-3.85257
 11
-2.93893
 21
-4.04508
  0
LINE
  8
0
 10
-2.93893
 20
-4.04508
 11
-2.67913
 21
-4.22164
  0
LINE
  8
0
 10
-2.67913
 20
-4.22164
 11
-2.40877
 21
-4.38153
  0
LINE
  8
0
 10
-2.40877
 20
-4.38153
 11
-2.1289
 21
-4.52414
  0
LINE
  8
0
 10
-2.1289
 20
-4.52414
 11
-1.84062
 21
-4.64888
  0
LINE
  8
0
 10
-1.84062
 20
-4.64888
 11
-1.54508
 21
-4.75528
  0
LINE
  8
0
 10
-1.54508
 20
-4.75528
 11
-1.24345
 21
-4.84292
  0
LINE
  8
0
 10
-1.24345
 20
-4.84292
 11
-0.936907
 21
-4.91144
  0
LINE
  8
0
 10
-0.936907
 20
-4.91144
 11
-0.626666
 21
-4.96057
  0
LINE
  8
0
 10
-0.626666
 20
-4.96057
 11
-0.313953
 21
-4.99013
  0
LINE
  8
0
 10
-0.313953
 20
-4.99013
 11
-9.18485e-16
 21
-5
  0
LINE
  8
0
 10
-9.18485e-16
 20
-5
 11
50
 21
-5
  0
LINE
  8
0
 10
50
 20
-5
 11
50.314
 21
-4.99013
  0
LINE
  8
0
 10
50.314
 20
-4.99013
 11
50.6267
 21
-4.96057
  0
LINE
  8
0
 10
50.6267
 20
-4.96057
 11
50.9369
 21
-4.91144
  0
LINE
  8
0
 10
50.9369
 20
-4.91144
 11
51.2434
 21
-4.84292
  0
LINE
  8
0
 10
51.2434
 20
-4.84292
 11
51.5451
 21
-4.75528
  0
LINE
  8
0
 10
51.5451
 20
-4.75528
 11
51.8406
 21
-4.64888
  0
LINE
  8
0
 10
51.8406
 20
-4.64888
 11
52.1289
 21
-4.52414
  0
LINE
  8
0
 10
52.1289
 20
-4.52414
 11
52.4088
 21
-4.38153
  0
LINE
  8
0
 10
52.4088
 20
-4.38153
 11
52.6791
 21
-4.22164
  0
LINE
  8
0
 10
52.6791
 20
-4.22164
 11
52.9389
 21
-4.04508
  0
LINE
  8
0
 10
52.9389
 20
-4.04508
 11
53.1871
 21
-3.85257
  0
LINE
  8
0
 10
53.1871
 20
-3.85257
 11
53.4227
 21
-3.64484
  0
LINE
  8
0
 10
53.4227
 20
-3.64484
 11
53.6448
 21
-3.42274
  0
LINE
  8
0
 10
53.6448
 20
-3.42274
 11
53.8526
 21
-3.18712
  0
LINE
  8
0
 10
53.8526
 20
-3.18712
 11
54.0451
 21
-2.93893
  0
LINE
  8
0
 10
54.0451
 20
-2.93893
 11
54.2216
 21
-2.67913
  0
LINE
  8
0
 10
54.2216
 20
-2.67913
 11
54.3815
 21
-2.40877
  0
LINE
  8
0
 10
54.3815
 20
-2.40877
 11
54.5241
 21
-2.1289
  0
LINE
  8
0
 10
54.5241
 20
-2.1289
 11
54.6489
 21
-1.84062
  0
LINE
  8
0
 10
54.6489
 20
-1.84062
 11
54.7553
 21
-1.54508
  0
LINE
  8
0
 10
54.7553
 20
-1.54508
 11
54.8429
 21
-1.24345
  0
LINE
  8
0
 10
54.8429
 20
-1.24345
 11
54.9114
 21
-0.936907
  0
LINE
  8
0
 10
54.9114
 20
-0.936907
 11
54.9606
 21
-0.626666
  0
LINE
  8
0
 10
54.9606
 20
-0.626666
 11
54.9901
 21
-0.313953
  0
LINE
  8
0
 10
54.9901
 20
-0.313953
 11
55
 21
0
  0
LINE
  8
0
 10
55
 20
0
 11
54.9901
 21
0.313953
  0
LINE
  8
0
 10
54.9901
 20
0.313953
 11
54.9606
 21
0.626666
  0
LINE
  8
0
 10
54.9606
 20
0.626666
 11
54.9114
 21
0.936907
  0
LINE
  8
0
 10
54.9114
 20
0.936907
 11
54.8429
 21
1.24345
  0
LINE
  8
0
 10
54.8429
 20
1.24345
 11
54.7553
 21
1.54508
  0
LINE
  8
0
 10
54.7553
 20
1.54508
 11
54.6489
 21
1.84062
  0
LINE
  8
0
 10
54.6489
 20
1.84062
 11
54.5241
 21
2.1289
  0
LINE
  8
0
 10
54.5241
 20
2.1289
 11
54.3815
 21
2.40877
  0
LINE
  8
0
 10
54.3815
 20
2.40877
 11
54.2216
 21
2.67913
  0
LINE
  8
0
 10
54.2216
 20
2.67913
 11
54.0451
 21
2.93893
  0
LINE
  8
0
 10
54.0451
 20
2.93893
 11
53.8526
 21
3.18712
  0
LINE
  8
0
 10
53.8526
 20
3.18712
 11
53.6448
 21
3.42274
  0
LINE
  8
0
 10
53.6448
 20
3.42274
 11
53.4227
 21
3.64484
  0
LINE
  8
0
 10
53.4227
 20
3.64484
 11
3.42274
 21
53.6448
  0
LINE
  8
0
 10
3.42274
 20
53.6448
 11
3.18712
 21
53.8526
  0
LINE
  8
0
 10
3.18712
 20
53.8526
 11
2.93893
 21
54.0451
  0
LINE
  8
0
 10
2.93893
 20
54.0451
 11
2.67913
 21
54.2216
  0
LINE
  8
0
 10
2.67913
 20
54.2216
 11
2.40877
 21
54.3815
  0
LINE
  8
0
 10
2.40877
 20
54.3815
 11
2.1289
 21
54.5241
  0
LINE
  8
0
 10
2.1289
 20
54.5241
 11
1.84062
 21
54.6489
  0
LINE
  8
0
 10
1.84062
 20
54.6489
 11
1.54508
 21
54.7553
  0
LINE
  8
0
 10
1.54508
 20
54.7553
 11
1.24345
 21
54.8429
  0
LINE
  8
0
 10
1.24345
 20
54.8429
 11
0.936907
 21
54.9114
  0
LINE
  8
0
 10
0.936907
 20
54.9114
 11
0.626666
 21
54.9606
  0
LINE
  8
0
 10
0.626666
 20
54.9606
 11
0.313953
 21
54.9901
  0
LINE
  8
0
 10
0.313953
 20
54.9901
 11
3.06162e-16
 21
55
  0
LINE
  8
0
 10
3.06162e-16
 20
55
 11
-0.313953
 21
54.9901
  0
LINE
  8
0
 10
-0.313953
 20
54.9901
 11
-0.626666
 21
54.9606
  0
LINE
  8
0
 10
-0.626666
 20
54.9606
 11
-0.936907
 21
54.9114
  0
LINE
  8
0
 10
-0.936907
 20
54.9114
 11
-1.24345
 21
54.8429
  0
LINE
  8
0
 10
-1.24345
 20
54.8429
 11
-1.54508
 21
54.7553
  0
LINE
  8
0
 10
-1.54508
 20
54.7553
 11
-1.84062
 21
54.6489
  0
LINE
  8
0
 10
-1.84062
 20
54.6489
 11
-2.1289
 21
54.5241
  0
LINE
  8
0
 10
-2.1289
 20
54.5241
 11
-2.40877
 21
54.3815
  0
LINE
  8
0
 10
-2.40877
 20
54.3815
 11
-2.67913
 21
54.2216
  0
LINE
  8
0
 10
-2.67913
 20
54.2216
 11
-2.93893
 21
54.0451
  0
LINE
  8
0
 10
-2.93893
 20
54.0451
 11
-3.18712
 21
53.8526
  0
LINE
  8
0
 10
-3.18712
 20
53.8526
 11
-3.42274
 21
53.6448
  0
LINE
  8
0
 10
-3.42274
 20
53.6448
 11
-3.64484
 21
53.4227
  0
LINE
  8
0
 10
-3.64484
 20
53.4227
 11
-3.85257
 21
53.1871
  0
LINE
  8
0
 10
-3.85257
 20
53.1871
 11
-4.04508
 21
52.9389
  0
LINE
  8
0
 10
-4.04508
 20
52.9389
 11
-4.22164
 21
52.6791
  0
LINE
  8
0
 10
-4.22164
 20
52.6791
 11
-4.38153
 21
52.4088
  0
LINE
  8
0
 10
-4.38153
 20
52.4088
 11
-4.52414
 21
52.1289
  0
LINE
  8
0
 10
-4.52414
 20
52.1289
 11
-4.64888
 21
51.8406
  0
LINE
  8
0
 10
-4.64888
 20
51.8406
 11
-4.75528
 21
51.5451
  0
LINE
  8
0
 10
-4.75528
 20
51.5451
 11
-4.84292
 21
51.2434
  0
LINE
  8
0
 10
-4.84292
 20
51.2434
 11
-4.91144
 21
50.9369
  0
LINE
  8
0
 10
-4.91144
 20
50.9369
 11
-4.96057
 21
50.6267
  0
LINE
  8
0
 10
-4.96057
 20
50.6267
 11
-4.99013
 21
50.314
  0
LINE
  8
0
 10
-4.99013
 20
50.314
 11
-5
 21
50
  0
LINE
  8
0
 10
-5
 20
50
 11
-5
 21
6.12323e-16
  0
ENDSEC
  0
SECTION
  2
OBJECTS
  0
DICTIONARY
  0
ENDSEC
  0
EOF
